<mxfile host="Electron" modified="2023-06-15T08:09:29.586Z" agent="Mozilla/5.0 (Windows NT 10.0; Win64; x64) AppleWebKit/537.36 (KHTML, like Gecko) draw.io/21.2.8 Chrome/112.0.5615.165 Electron/24.2.0 Safari/537.36" etag="GiCxaAt422QcTT-hd-vz" version="21.2.8" type="device">
  <diagram name="Página-1" id="7mm1hLGjsd7x1xsBEt73">
    <mxGraphModel dx="2074" dy="844" grid="1" gridSize="10" guides="1" tooltips="1" connect="1" arrows="1" fold="1" page="1" pageScale="1" pageWidth="827" pageHeight="1169" math="0" shadow="0">
      <root>
        <mxCell id="0" />
        <mxCell id="1" parent="0" />
        <object label="&lt;font style=&quot;font-size: 17px;&quot; color=&quot;#ffffff&quot;&gt;Sistema de e-commerce&lt;/font&gt;&lt;div style=&quot;font-size: 17px;&quot;&gt;&lt;font color=&quot;#ffffff&quot; style=&quot;font-size: 17px;&quot;&gt;[Sistema de software]&lt;/font&gt;&lt;/div&gt;&lt;div style=&quot;font-size: 8px;&quot;&gt;&lt;font color=&quot;#ffffff&quot; style=&quot;font-size: 8px;&quot;&gt;&lt;br&gt;&lt;/font&gt;&lt;/div&gt;&lt;div style=&quot;font-size: 17px;&quot;&gt;&lt;font color=&quot;#ffffff&quot; style=&quot;font-size: 17px;&quot;&gt;Permite os clientes comprarem os produtos da empresa ABC de forma online e acompanhar o andamento dos seus pedidos&lt;/font&gt;&lt;br&gt;&lt;/div&gt;" placeholders="1" c4Name="name" c4Type="SoftwareSystem" c4Description="Beschreibung" id="CQPORLNa1OhLJlv0XgOM-1">
          <mxCell style="rounded=1;whiteSpace=wrap;html=1;labelBackgroundColor=none;fillColor=#000099;fontColor=#000000;align=center;arcSize=7;strokeColor=#6c8ebf;" vertex="1" parent="1">
            <mxGeometry x="291" y="340" width="269" height="140" as="geometry" />
            <C4SoftwareSystem as="c4" />
          </mxCell>
        </object>
        <object label="&lt;font style=&quot;font-size: 17px;&quot;&gt;&lt;font style=&quot;font-size: 17px;&quot;&gt;&lt;b style=&quot;&quot;&gt;Sistema de&amp;nbsp;&lt;/b&gt;&lt;/font&gt;&lt;b style=&quot;&quot;&gt;notificação&lt;/b&gt;&lt;/font&gt;&lt;div style=&quot;font-size: 17px;&quot;&gt;&lt;font style=&quot;font-size: 17px;&quot;&gt;[Sistema de software]&lt;/font&gt;&lt;/div&gt;&lt;div style=&quot;font-size: 8px;&quot;&gt;&lt;font style=&quot;font-size: 8px;&quot;&gt;&lt;br&gt;&lt;/font&gt;&lt;/div&gt;&lt;div style=&quot;font-size: 17px;&quot;&gt;&lt;font style=&quot;font-size: 17px;&quot;&gt;Permite o envio de e-mails para os clientes da loja online.&amp;nbsp;&lt;/font&gt;&lt;/div&gt;" placeholders="1" c4Name="name" c4Type="SoftwareSystem" c4Description="Beschreibung" id="CQPORLNa1OhLJlv0XgOM-2">
          <mxCell style="rounded=1;whiteSpace=wrap;html=1;labelBackgroundColor=none;fillColor=#B3B3B3;fontColor=#000000;align=center;arcSize=7;strokeColor=#6c8ebf;" vertex="1" parent="1">
            <mxGeometry x="664" y="350" width="195" height="120" as="geometry" />
            <C4SoftwareSystem as="c4" />
          </mxCell>
        </object>
        <object label="&lt;font style=&quot;font-size: 17px;&quot;&gt;&lt;font style=&quot;font-size: 17px;&quot;&gt;&lt;span style=&quot;background-color: initial;&quot;&gt;&lt;b style=&quot;&quot;&gt;Gateway de pagamento&lt;br&gt;&lt;/b&gt;&lt;/span&gt;&lt;span style=&quot;background-color: initial;&quot;&gt;[Sistema de software]&lt;/span&gt;&lt;/font&gt;&lt;br&gt;&lt;/font&gt;&lt;div style=&quot;font-size: 8px;&quot;&gt;&lt;font style=&quot;font-size: 8px;&quot;&gt;&lt;br&gt;&lt;/font&gt;&lt;/div&gt;&lt;div style=&quot;font-size: 17px;&quot;&gt;&lt;font style=&quot;font-size: 17px;&quot;&gt;Confirma a autorização do pagamento do pedido&lt;/font&gt;&lt;/div&gt;" placeholders="1" c4Name="name" c4Type="SoftwareSystem" c4Description="Beschreibung" id="CQPORLNa1OhLJlv0XgOM-3">
          <mxCell style="rounded=1;whiteSpace=wrap;html=1;labelBackgroundColor=none;fillColor=#B3B3B3;fontColor=#000000;align=center;arcSize=7;strokeColor=#6c8ebf;" vertex="1" parent="1">
            <mxGeometry x="4" y="350" width="195" height="120" as="geometry" />
            <C4SoftwareSystem as="c4" />
          </mxCell>
        </object>
        <object label="&lt;font style=&quot;font-size: 17px;&quot;&gt;&lt;b style=&quot;&quot;&gt;Sistema de entrega&lt;/b&gt;&lt;/font&gt;&lt;div style=&quot;font-size: 17px;&quot;&gt;&lt;font style=&quot;font-size: 17px;&quot;&gt;[Software System]&lt;/font&gt;&lt;/div&gt;&lt;div style=&quot;font-size: 8px;&quot;&gt;&lt;font style=&quot;font-size: 8px;&quot;&gt;&lt;br&gt;&lt;/font&gt;&lt;/div&gt;&lt;div style=&quot;font-size: 17px;&quot;&gt;&lt;font style=&quot;font-size: 17px;&quot;&gt;Realiza a entrega dos pedidos&lt;/font&gt;&lt;/div&gt;" placeholders="1" c4Name="name" c4Type="SoftwareSystem" c4Description="Beschreibung" id="CQPORLNa1OhLJlv0XgOM-4">
          <mxCell style="rounded=1;whiteSpace=wrap;html=1;labelBackgroundColor=none;fillColor=#B3B3B3;fontColor=#000000;align=center;arcSize=7;strokeColor=#6c8ebf;" vertex="1" parent="1">
            <mxGeometry x="328" y="530" width="195" height="120" as="geometry" />
            <C4SoftwareSystem as="c4" />
          </mxCell>
        </object>
        <mxCell id="CQPORLNa1OhLJlv0XgOM-5" value="" style="group" connectable="0" vertex="1" parent="1">
          <mxGeometry x="340.5" y="80" width="170" height="190" as="geometry" />
        </mxCell>
        <mxCell id="CQPORLNa1OhLJlv0XgOM-6" value="" style="group;rounded=0;labelBackgroundColor=none;fillColor=none;fontColor=#000000;align=center;html=1;" connectable="0" vertex="1" parent="CQPORLNa1OhLJlv0XgOM-5">
          <mxGeometry width="158.66666666666666" height="190" as="geometry" />
          <C4Person as="c4" />
        </mxCell>
        <object label="&lt;font color=&quot;#ffffff&quot; style=&quot;font-size: 17px;&quot;&gt;Cliente&lt;/font&gt;&lt;div style=&quot;font-size: 8px;&quot;&gt;&lt;font color=&quot;#ffffff&quot; style=&quot;font-size: 8px;&quot;&gt;&lt;font style=&quot;font-size: 17px;&quot;&gt;[Pessoa]&lt;/font&gt;&lt;br&gt;&lt;br&gt;&lt;/font&gt;&lt;/div&gt;&lt;div style=&quot;font-size: 17px;&quot;&gt;&lt;font color=&quot;#ffffff&quot; style=&quot;font-size: 17px;&quot;&gt;Cliente comprando pela loja online da empresa ABC&lt;/font&gt;&lt;/div&gt;" placeholders="1" c4Name="name" c4Type="body" c4Description="Beschreibung" id="CQPORLNa1OhLJlv0XgOM-7">
          <mxCell style="rounded=1;whiteSpace=wrap;html=1;labelBackgroundColor=none;fillColor=#000066;fontColor=#000000;align=center;arcSize=33;strokeColor=#6c8ebf;" vertex="1" parent="CQPORLNa1OhLJlv0XgOM-6">
            <mxGeometry y="73.88888888888889" width="158.66666666666666" height="116.11111111111111" as="geometry" />
            <C4Person as="c4" />
          </mxCell>
        </object>
        <mxCell id="CQPORLNa1OhLJlv0XgOM-8" value="" style="ellipse;whiteSpace=wrap;html=1;aspect=fixed;rounded=0;labelBackgroundColor=none;fillColor=#000066;fontSize=12;fontColor=#000000;align=center;strokeColor=#6c8ebf;" vertex="1" parent="CQPORLNa1OhLJlv0XgOM-6">
          <mxGeometry x="39.666666666666664" width="73.88888888888889" height="73.88888888888889" as="geometry" />
          <C4Person as="c4" />
        </mxCell>
        <mxCell id="CQPORLNa1OhLJlv0XgOM-9" value="&lt;font style=&quot;font-size: 26px;&quot;&gt;&lt;b&gt;&lt;font style=&quot;font-size: 26px;&quot;&gt;ABC&lt;/font&gt;&lt;/b&gt;&lt;br&gt;[empresa]&lt;/font&gt;" style="text;html=1;strokeColor=none;fillColor=none;align=center;verticalAlign=middle;whiteSpace=wrap;rounded=0;" vertex="1" parent="1">
          <mxGeometry x="90" y="530" width="147" height="84" as="geometry" />
        </mxCell>
        <object label="&lt;div style=&quot;text-align: left; font-size: 16px;&quot;&gt;&lt;div style=&quot;text-align: center&quot;&gt;&lt;br&gt;&lt;/div&gt;&lt;/div&gt;" c4Type="Relationship" c4Description="Beschreibung" c4Technology="technology" id="CQPORLNa1OhLJlv0XgOM-10">
          <mxCell style="edgeStyle=none;rounded=0;html=1;entryX=0.25;entryY=0;jettySize=auto;orthogonalLoop=1;strokeColor=#A8A8A8;strokeWidth=2;fontColor=#000000;jumpStyle=none;dashed=1;exitX=0.25;exitY=1;exitDx=0;exitDy=0;entryDx=0;entryDy=0;" edge="1" parent="1" source="CQPORLNa1OhLJlv0XgOM-7" target="CQPORLNa1OhLJlv0XgOM-1">
            <mxGeometry x="-0.078" y="-30" width="160" relative="1" as="geometry">
              <mxPoint x="370" y="320" as="sourcePoint" />
              <mxPoint x="530" y="320" as="targetPoint" />
              <mxPoint as="offset" />
            </mxGeometry>
            <C4Relationship as="c4" />
          </mxCell>
        </object>
        <object label="&lt;div style=&quot;text-align: left; font-size: 16px;&quot;&gt;&lt;div style=&quot;text-align: center&quot;&gt;&lt;br&gt;&lt;/div&gt;&lt;/div&gt;" c4Type="Relationship" c4Description="Beschreibung" c4Technology="technology" id="CQPORLNa1OhLJlv0XgOM-11">
          <mxCell style="rounded=0;html=1;jettySize=auto;orthogonalLoop=1;strokeColor=#A8A8A8;strokeWidth=2;fontColor=#000000;jumpStyle=none;dashed=1;exitX=1;exitY=0.5;exitDx=0;exitDy=0;entryX=0;entryY=0.5;entryDx=0;entryDy=0;" edge="1" parent="1" target="CQPORLNa1OhLJlv0XgOM-2">
            <mxGeometry y="30" width="160" relative="1" as="geometry">
              <mxPoint x="565" y="410" as="sourcePoint" />
              <mxPoint x="660" y="410" as="targetPoint" />
              <mxPoint as="offset" />
            </mxGeometry>
            <C4Relationship as="c4" />
          </mxCell>
        </object>
        <object label="&lt;div style=&quot;text-align: left; font-size: 16px;&quot;&gt;&lt;div style=&quot;text-align: center&quot;&gt;&lt;br&gt;&lt;/div&gt;&lt;/div&gt;" c4Type="Relationship" c4Description="Beschreibung" c4Technology="technology" id="CQPORLNa1OhLJlv0XgOM-12">
          <mxCell style="edgeStyle=none;rounded=0;html=1;jettySize=auto;orthogonalLoop=1;strokeColor=#A8A8A8;strokeWidth=2;fontColor=#000000;jumpStyle=none;dashed=1;exitX=1;exitY=0.75;exitDx=0;exitDy=0;entryX=0;entryY=0.75;entryDx=0;entryDy=0;" edge="1" parent="1" source="CQPORLNa1OhLJlv0XgOM-3" target="CQPORLNa1OhLJlv0XgOM-1">
            <mxGeometry x="-0.1477" y="20" width="160" relative="1" as="geometry">
              <mxPoint x="241" y="260" as="sourcePoint" />
              <mxPoint x="401" y="260" as="targetPoint" />
              <mxPoint as="offset" />
            </mxGeometry>
            <C4Relationship as="c4" />
          </mxCell>
        </object>
        <object label="&lt;div style=&quot;text-align: left; font-size: 16px;&quot;&gt;&lt;div style=&quot;text-align: center&quot;&gt;&lt;br&gt;&lt;/div&gt;&lt;/div&gt;" c4Type="Relationship" c4Description="Beschreibung" c4Technology="technology" id="CQPORLNa1OhLJlv0XgOM-13">
          <mxCell style="edgeStyle=none;rounded=0;html=1;entryX=0.5;entryY=0;jettySize=auto;orthogonalLoop=1;strokeColor=#A8A8A8;strokeWidth=2;fontColor=#000000;jumpStyle=none;dashed=1;exitX=0.5;exitY=1;exitDx=0;exitDy=0;entryDx=0;entryDy=0;" edge="1" parent="1" source="CQPORLNa1OhLJlv0XgOM-1" target="CQPORLNa1OhLJlv0XgOM-4">
            <mxGeometry x="-0.1077" width="160" relative="1" as="geometry">
              <mxPoint x="481" y="260" as="sourcePoint" />
              <mxPoint x="641" y="260" as="targetPoint" />
              <mxPoint as="offset" />
            </mxGeometry>
            <C4Relationship as="c4" />
          </mxCell>
        </object>
        <object label="&lt;div style=&quot;text-align: left; font-size: 16px;&quot;&gt;&lt;div style=&quot;text-align: center&quot;&gt;&lt;br&gt;&lt;/div&gt;&lt;/div&gt;" c4Type="Relationship" c4Description="Beschreibung" c4Technology="technology" id="CQPORLNa1OhLJlv0XgOM-14">
          <mxCell style="edgeStyle=none;rounded=0;html=1;entryX=0.75;entryY=1;jettySize=auto;orthogonalLoop=1;strokeColor=#A8A8A8;strokeWidth=2;fontColor=#000000;jumpStyle=none;dashed=1;exitX=0.75;exitY=0;exitDx=0;exitDy=0;entryDx=0;entryDy=0;" edge="1" parent="1" source="CQPORLNa1OhLJlv0XgOM-1" target="CQPORLNa1OhLJlv0XgOM-7">
            <mxGeometry x="-0.3027" y="-30" width="160" relative="1" as="geometry">
              <mxPoint x="480" y="220" as="sourcePoint" />
              <mxPoint x="640" y="220" as="targetPoint" />
              <mxPoint as="offset" />
            </mxGeometry>
            <C4Relationship as="c4" />
          </mxCell>
        </object>
        <object label="&lt;div style=&quot;text-align: left&quot;&gt;&lt;div style=&quot;text-align: center&quot;&gt;&lt;br&gt;&lt;/div&gt;&lt;/div&gt;" c4Type="Relationship" c4Description="Beschreibung" c4Technology="technology" id="CQPORLNa1OhLJlv0XgOM-15">
          <mxCell style="edgeStyle=none;rounded=0;html=1;entryX=1;entryY=0.5;jettySize=auto;orthogonalLoop=1;strokeColor=#A8A8A8;strokeWidth=2;fontColor=#000000;jumpStyle=none;dashed=1;exitX=0;exitY=0.5;exitDx=0;exitDy=0;entryDx=0;entryDy=0;" edge="1" parent="1" source="CQPORLNa1OhLJlv0XgOM-1" target="CQPORLNa1OhLJlv0XgOM-3">
            <mxGeometry x="0.0341" y="-20" width="160" relative="1" as="geometry">
              <mxPoint x="121" y="400" as="sourcePoint" />
              <mxPoint x="281" y="400" as="targetPoint" />
              <mxPoint as="offset" />
            </mxGeometry>
            <C4Relationship as="c4" />
          </mxCell>
        </object>
        <object label="&lt;div style=&quot;text-align: left&quot;&gt;&lt;div style=&quot;text-align: center&quot;&gt;&lt;br&gt;&lt;/div&gt;&lt;/div&gt;" c4Type="Relationship" c4Description="Beschreibung" c4Technology="technology" id="CQPORLNa1OhLJlv0XgOM-16">
          <mxCell style="edgeStyle=none;rounded=0;html=1;entryX=1;entryY=0.5;jettySize=auto;orthogonalLoop=1;strokeColor=#A8A8A8;strokeWidth=2;fontColor=#000000;jumpStyle=none;dashed=1;exitX=0.5;exitY=0;exitDx=0;exitDy=0;entryDx=0;entryDy=0;" edge="1" parent="1" source="CQPORLNa1OhLJlv0XgOM-2" target="CQPORLNa1OhLJlv0XgOM-7">
            <mxGeometry x="-0.3032" y="-29" width="160" relative="1" as="geometry">
              <mxPoint x="459" y="350" as="sourcePoint" />
              <mxPoint x="435" y="220" as="targetPoint" />
              <mxPoint as="offset" />
            </mxGeometry>
            <C4Relationship as="c4" />
          </mxCell>
        </object>
        <mxCell id="CQPORLNa1OhLJlv0XgOM-17" value="&lt;font style=&quot;font-size: 18px;&quot;&gt;Confirma o pagamento&lt;/font&gt;" style="text;html=1;strokeColor=none;fillColor=none;align=center;verticalAlign=middle;whiteSpace=wrap;rounded=0;fontSize=16;" vertex="1" parent="1">
          <mxGeometry x="195" y="450" width="100" height="40" as="geometry" />
        </mxCell>
        <mxCell id="CQPORLNa1OhLJlv0XgOM-18" value="&lt;font style=&quot;font-size: 18px;&quot;&gt;Realiza o pagamento&lt;/font&gt;" style="text;html=1;strokeColor=none;fillColor=none;align=center;verticalAlign=middle;whiteSpace=wrap;rounded=0;fontSize=16;" vertex="1" parent="1">
          <mxGeometry x="196" y="358" width="100" height="40" as="geometry" />
        </mxCell>
        <mxCell id="CQPORLNa1OhLJlv0XgOM-19" value="&lt;font style=&quot;font-size: 18px;&quot;&gt;Envia informações do pedido&lt;/font&gt;" style="text;html=1;strokeColor=none;fillColor=none;align=center;verticalAlign=middle;whiteSpace=wrap;rounded=0;fontSize=16;" vertex="1" parent="1">
          <mxGeometry x="431" y="473" width="150" height="60" as="geometry" />
        </mxCell>
        <mxCell id="CQPORLNa1OhLJlv0XgOM-20" value="&lt;font style=&quot;font-size: 18px;&quot;&gt;Envia informações do pedido&lt;/font&gt;" style="text;html=1;strokeColor=none;fillColor=none;align=center;verticalAlign=middle;whiteSpace=wrap;rounded=0;fontSize=16;" vertex="1" parent="1">
          <mxGeometry x="569" y="345" width="90" height="60" as="geometry" />
        </mxCell>
        <mxCell id="CQPORLNa1OhLJlv0XgOM-21" value="&lt;font style=&quot;font-size: 18px;&quot;&gt;Realiza o pedido no site&lt;/font&gt;" style="text;html=1;strokeColor=none;fillColor=none;align=center;verticalAlign=middle;whiteSpace=wrap;rounded=0;fontSize=16;" vertex="1" parent="1">
          <mxGeometry x="240" y="280" width="120" height="40" as="geometry" />
        </mxCell>
        <mxCell id="CQPORLNa1OhLJlv0XgOM-22" value="&lt;font style=&quot;font-size: 18px;&quot;&gt;Acompanha a situação do pedido&lt;/font&gt;" style="text;html=1;strokeColor=none;fillColor=none;align=center;verticalAlign=middle;whiteSpace=wrap;rounded=0;fontSize=16;" vertex="1" parent="1">
          <mxGeometry x="486" y="284" width="160" height="40" as="geometry" />
        </mxCell>
        <mxCell id="CQPORLNa1OhLJlv0XgOM-23" value="&lt;font style=&quot;font-size: 18px;&quot;&gt;Envia e-mail para&lt;/font&gt;" style="text;html=1;strokeColor=none;fillColor=none;align=center;verticalAlign=middle;whiteSpace=wrap;rounded=0;fontSize=16;" vertex="1" parent="1">
          <mxGeometry x="607" y="240" width="150" height="40" as="geometry" />
        </mxCell>
      </root>
    </mxGraphModel>
  </diagram>
</mxfile>
